<svg xmlns="http://www.w3.org/2000/svg" width="284" height="297" viewBox="0 0 284 297"><path d="M55.011,293.268a47.513,47.513,0,1,1,51.011-78.389V168h14.853v78q.126,1.739.126,3.5a47.528,47.528,0,0,1-65.99,43.768ZM40,249a33,33,0,1,0,33-33A33.037,33.037,0,0,0,40,249Zm178.01,15.268a47.513,47.513,0,1,1,51.634-77.792V48L174,72.374V58L284,28V220.5a47.526,47.526,0,0,1-65.99,43.767ZM203,220a33,33,0,1,0,33-33A33.037,33.037,0,0,0,203,220ZM45.806,144.106A75.244,75.244,0,1,1,75,150,74.749,74.749,0,0,1,45.806,144.106ZM30,79H71v40H81V79h40V69H81V28H71V69H30Z" fill="#707070"/></svg>