<svg xmlns="http://www.w3.org/2000/svg" width="140.028" height="140.005" viewBox="0 0 140.028 140.005"><path d="M89.179,133.854a21,21,0,0,1,29.341-30.048V66.673L140.028,78.8v8.356l-15.1-8.356-.357,35.8a21.194,21.194,0,0,1,.46,4.405,21,21,0,0,1-35.849,14.85ZM90.028,119a14,14,0,1,0,14-14A14.016,14.016,0,0,0,90.028,119Zm-90,21s-.063-18.184,0-20,.188-5.605,10-14.6S43.2,85.277,43.2,81.582,23.845,59.694,23.643,40.005,37.6.362,62.809,0s37.219,20.005,37.219,40S82.554,78.271,82.554,81.582s5.576,4.04,7.474,5.956,3.387,9.927,0,9.11S72.526,86.8,72.277,81.582,90.028,60.3,90.028,40.005,83.218,9.892,62.809,10s-29.766,9.931-29.766,30S52.774,79.052,52.774,81.582A10.841,10.841,0,0,1,47.926,90c-3.446,2.466-18.423,11.289-27.9,18.789s-9.3,7.825-10,11.21,0,20,0,20Z" transform="translate(0 0)"/></svg>